<svg id="search" width="20px" height="20px" viewBox="0 0 64 64" version="1.1" xmlns="http://www.w3.org/2000/svg" xmlns:xlink="http://www.w3.org/1999/xlink">
  <g id="Page-1" stroke="none" stroke-width="1" fill="none" fill-rule="evenodd">
      <g id="search" transform="translate(-85.000000, -57.000000)" fill="#fff">
          <path d="M148.125,112.375 C148.708336,112.958336 149,113.666663 149,114.5 C149,115.333337 148.708336,116.041664 148.125,116.625 L144.625,120.125 C144.041664,120.708336 143.333337,121 142.5,121 C141.666663,121 140.958336,120.708336 140.375,120.125 L127.875,107.625 C127.291664,107.041664 127,106.333337 127,105.5 L127,103.5 C122.33331,107.166685 117.00003,109 111,109 C106.249976,109 101.895853,107.833345 97.9375,105.5 C93.9791469,103.166655 90.833345,100.020853 88.5,96.0625 C86.166655,92.1041469 85,87.7500237 85,83 C85,78.2499763 86.166655,73.8958531 88.5,69.9375 C90.833345,65.9791469 93.9791469,62.833345 97.9375,60.5 C101.895853,58.166655 106.249976,57 111,57 C115.750024,57 120.104147,58.166655 124.0625,60.5 C128.020853,62.833345 131.166655,65.9791469 133.5,69.9375 C135.833345,73.8958531 137,78.2499763 137,83 C137,89.00003 135.166685,94.33331 131.5,99 L133.5,99 C134.333337,99 135.041664,99.2916637 135.625,99.875 L148.125,112.375 Z M111,99 C113.916681,99 116.604154,98.2916738 119.0625,96.875 C121.520846,95.4583262 123.458326,93.5208456 124.875,91.0625 C126.291674,88.6041544 127,85.9166812 127,83 C127,80.0833188 126.291674,77.3958456 124.875,74.9375 C123.458326,72.4791544 121.520846,70.5416738 119.0625,69.125 C116.604154,67.7083262 113.916681,67 111,67 C108.083319,67 105.395846,67.7083262 102.9375,69.125 C100.479154,70.5416738 98.5416738,72.4791544 97.125,74.9375 C95.7083262,77.3958456 95,80.0833188 95,83 C95,85.9166812 95.7083262,88.6041544 97.125,91.0625 C98.5416738,93.5208456 100.479154,95.4583262 102.9375,96.875 C105.395846,98.2916738 108.083319,99 111,99 Z"></path>
      </g>
  </g>
</svg>
