<svg width="371px" height="85px" viewBox="0 0 371 85" version="1.1" xmlns="http://www.w3.org/2000/svg" xmlns:xlink="http://www.w3.org/1999/xlink">
  <title>Good Recipes!</title>
  <desc>Created with Sketch.</desc>
  <g id="goodrecipes" stroke="none" stroke-width="1" fill="none" fill-rule="evenodd">
    <path d="M51,50.3710462 C51,52.785765 50.8599473,55.2941205 50.5798376,57.8961882 C50.299728,60.4982558 49.848447,63.0482438 49.2259811,65.5462287 C48.6035152,68.0442136 47.7787602,70.4068556 46.7516915,72.6342255 C45.7246227,74.8615953 44.4641482,76.8183208 42.97023,78.5044607 C41.4763119,80.1906005 39.7282464,81.5280432 37.7259811,82.5168289 C35.7237157,83.5056146 33.4361879,84 30.8633288,84 C30.386105,84 29.8155198,83.9687757 29.1515562,83.906326 C28.4875925,83.8438764 27.792516,83.7397953 27.0663058,83.5940795 C26.3400956,83.4483637 25.6190834,83.2558136 24.9032476,83.0164234 C24.1874118,82.7770331 23.5493939,82.4804019 22.9891746,82.1265207 C22.4289553,81.7726395 21.9724871,81.361519 21.6197564,80.8931468 C21.2670258,80.4247746 21.0906631,79.8887567 21.0906631,79.285077 C21.0906631,78.9728289 21.1580959,78.5617084 21.2929635,78.0517032 C21.4278311,77.5416979 21.6353166,77.0473125 21.9154263,76.568532 C22.1955359,76.0897516 22.5482613,75.673427 22.973613,75.3195458 C23.3989647,74.9656646 23.9124914,74.7887267 24.5142084,74.7887267 C25.1989209,74.7887267 25.8628745,74.9032159 26.5060893,75.1321979 C27.1493041,75.3611798 27.8132577,75.6161786 28.4979702,75.8972019 C29.1826827,76.1782252 29.8985078,76.4332241 30.6454668,76.662206 C31.3924259,76.891188 32.2016195,77.0056772 33.0730717,77.0056772 C34.0482683,77.0056772 35.0078888,76.5060877 35.9519621,75.5068938 C36.8960354,74.5076998 37.7882231,73.2066855 38.6285521,71.6038118 C39.4688811,70.0009382 40.2365775,68.2055385 40.9316644,66.2175588 C41.6267513,64.2295791 42.2128979,62.2364252 42.6901218,60.2380373 C41.6941763,61.1539651 40.6411873,62.0230427 39.5311231,62.845296 C38.421059,63.6675494 37.1553973,64.3857093 35.7341001,64.9997972 C34.312803,65.6138852 32.6892288,66.1030666 30.8633288,66.467356 C29.0374288,66.8316455 26.9210765,67.0137875 24.5142084,67.0137875 C21.7131118,67.0137875 18.9898644,66.4465453 16.3443843,65.3120438 C13.6989042,64.1775423 11.5773648,62.6475495 9.9797023,60.7220195 C8.38203982,58.7964894 7.15268811,56.5587448 6.29161028,54.0087186 C5.43053246,51.4586923 5,48.7786029 5,45.9683698 C5,42.2838421 5.44090673,38.7606954 6.32273342,35.398824 C7.20456012,32.0369526 8.42353755,28.9145183 9.9797023,26.0314274 C11.5358671,23.1483365 13.3721139,20.5358998 15.488498,18.1940389 C17.604882,15.8521781 19.8872228,13.8538201 22.3355886,12.1989051 C24.7839545,10.5439901 27.3515878,9.26379204 30.0385656,8.35827251 C32.7255434,7.45275297 35.4176681,7 38.1150203,7 C39.7749294,7 41.3155094,7.24979474 42.7368065,7.74939173 C44.1581036,8.24898871 45.3926425,9.02959729 46.4404601,10.0912409 C47.4882777,11.1528845 48.3078455,12.4955312 48.8991881,14.1192214 C49.4905307,15.7429116 49.7861976,17.6788209 49.7861976,19.9270073 C49.7861976,20.801302 49.6824548,21.6703796 49.4749662,22.534266 C49.2674775,23.3981525 48.9251264,24.26723 48.4479026,25.1415247 C47.7839389,26.1199022 47.1407338,26.8120418 46.5182679,27.2179643 C45.895802,27.6238869 45.3044683,27.8268451 44.744249,27.8268451 C44.3085229,27.8268451 43.9039261,27.7123558 43.5304465,27.4833739 C43.156967,27.2543919 42.8353645,26.9525566 42.5656292,26.5778589 C42.295894,26.2031611 42.0832213,25.7816325 41.9276049,25.3132603 C41.7719884,24.8448882 41.6941813,24.3609109 41.6941813,23.8613139 C41.6941813,23.4657996 41.756427,23.0806994 41.8809202,22.7060016 C42.0054133,22.3313039 42.1350918,21.9566118 42.2699594,21.581914 C42.404827,21.2072163 42.5345055,20.816912 42.6589986,20.4109895 C42.7834918,20.0050669 42.8457375,19.5835383 42.8457375,19.1463909 C42.8457375,17.0647368 42.3892693,15.5035197 41.4763194,14.4626926 C40.5633694,13.4218656 39.422199,12.9014599 38.052774,12.9014599 C36.3721161,12.9014599 34.603302,13.2501317 32.7462788,13.9474858 C30.8892555,14.6448399 29.06857,15.654427 27.2841678,16.9762774 C25.4997655,18.2981277 23.8035714,19.9217936 22.1955345,21.8473236 C20.5874976,23.7728536 19.1714089,25.9741698 17.947226,28.4513382 C16.723043,30.9285066 15.7530482,33.6606366 15.0372124,36.6478102 C14.3213767,39.6349838 13.9634641,42.8458871 13.9634641,46.2806164 C13.9634641,48.4247201 14.2280082,50.2929766 14.7571042,51.885442 C15.2862002,53.4779074 16.2354465,54.804942 17.6048714,55.8665856 C18.9742964,56.9282292 20.3644494,57.7192458 21.7753721,58.2396594 C23.1862948,58.7600729 24.7735591,59.0202758 26.5372124,59.0202758 C29.8155329,59.0202758 32.8344472,58.5779309 35.594046,57.6932279 C38.3536448,56.8085249 40.9472138,55.5647552 43.3748309,53.9618816 C43.5408218,53.3373854 43.6860616,52.7389188 43.8105548,52.1664639 C43.935048,51.594009 43.9972936,51.0683993 43.9972936,50.5896188 C43.9972936,49.9651226 43.9142994,49.4707372 43.7483085,49.1064477 C43.5823176,48.7421582 43.3592707,48.4715472 43.079161,48.2946067 C42.7990514,48.1176661 42.4670745,48.0083809 42.0832206,47.9667478 C41.6993666,47.9251147 41.2895827,47.9042985 40.8538566,47.9042985 C40.0653998,47.9042985 39.3755104,47.8002173 38.7841678,47.5920519 C38.1928252,47.3838865 37.6896728,47.1132755 37.2746955,46.7802109 C36.8597183,46.4471462 36.54849,46.062046 36.3410014,45.6248986 C36.1335127,45.1877513 36.02977,44.7506105 36.02977,44.3134631 C36.02977,43.8763157 36.1283256,43.4547871 36.3254398,43.0488646 C36.522554,42.642942 36.8285951,42.2838621 37.2435724,41.9716139 C37.6585497,41.6593658 38.1824506,41.404367 38.8152909,41.2066099 C39.4481313,41.0088528 40.189892,40.9099757 41.0405954,40.9099757 C43.0532351,40.9099757 44.7079322,41.118138 46.0047361,41.5344688 C47.3015401,41.9507996 48.3182191,42.5648783 49.0548038,43.3767234 C49.7913884,44.1885685 50.299728,45.1825435 50.5798376,46.358678 C50.8599473,47.5348126 51,48.8722553 51,50.3710462 Z" id="G" fill="#fff"></path>
    <path d="M76.0479774,36.6608961 C76.6481686,37.8815404 77.0983052,39.1705635 77.3984008,40.5280041 C77.6984963,41.8854447 77.8485419,43.4164884 77.8485419,45.1211813 C77.8485419,46.3628711 77.7140183,47.615065 77.4449671,48.8778004 C77.1759159,50.1405358 76.7878671,51.3611618 76.280809,52.5397149 C75.773751,53.7182679 75.1528729,54.8231449 74.4181562,55.8543788 C73.6834394,56.8856128 72.845254,57.7800369 71.9035748,58.5376782 C70.9618956,59.2953195 69.9322728,59.8951098 68.8146754,60.3370672 C67.6970781,60.7790246 66.5070618,61 65.2445908,61 C63.4233211,61 61.8659519,60.5948785 60.5724365,59.7846232 C59.2789211,58.974368 58.2182544,57.9168429 57.3904045,56.6120163 C56.5625547,55.3071897 55.9571985,53.8340204 55.574318,52.1924644 C55.1914374,50.5509083 55,48.8883316 55,47.2046843 C55,44.4266664 55.3414829,42.0327663 56.0244591,40.0229124 C56.7074352,38.0130585 57.6853182,36.2663007 58.9581373,34.7825866 C60.2309565,33.2988724 61.7883257,32.1308597 63.6302916,31.2785132 C65.4722576,30.4261668 67.5418512,30 69.8391345,30 C71.8052779,30 73.6472162,30.3104178 75.3650047,30.9312627 C77.0827932,31.5521077 78.6919022,32.383396 80.1923801,33.4251527 C81.6928579,34.4669095 83.0898336,35.7769779 84.383349,37.3553971 C85.6768644,38.9338164 86.8824027,40.4385536 88,41.8696538 L87.4101599,46.3207739 C86.8513613,45.5631327 86.0959596,44.7423669 85.1439323,43.8584521 C84.1919049,42.9745373 83.182978,41.995932 82.1171214,40.9226069 C81.0512647,39.8492818 80.0009459,38.9390737 78.9661336,38.1919552 C77.9313213,37.4448367 77.041396,36.8187398 76.2963311,36.3136456 L76.0479774,36.6608961 Z M66.4553151,54.9389002 C67.1589875,54.9389002 67.8419534,54.5758692 68.5042333,53.8497963 C69.1665132,53.1237235 69.7459994,52.208254 70.2427093,51.1033605 C70.7394192,49.998467 71.137816,48.662092 71.4379116,47.0941955 C71.7380071,45.526299 71.8880527,44.1320496 71.8880527,42.9114053 C71.8880527,41.9433081 71.8156169,41.0436226 71.6707432,40.2123218 C71.5258695,39.381021 71.3085621,38.6602203 71.0188147,38.0498982 C70.7290672,37.439576 70.3565404,36.9555347 69.901223,36.5977597 C69.4459055,36.2399846 68.8974632,36.0610998 68.2558796,36.0610998 C67.4073335,36.0610998 66.600192,36.4293921 65.8344309,37.1659878 C65.0686697,37.9025835 64.3960518,38.8443595 63.8165569,39.9913442 C63.237062,41.1383289 62.7817514,42.4063067 62.4506115,43.7953157 C62.1194715,45.1843247 61.953904,46.7521976 61.953904,48.4989817 C61.953904,49.3828965 62.0366878,50.2141848 62.2022578,50.9928717 C62.3678277,51.7715585 62.6265269,52.4502687 62.9783631,53.0290224 C63.3301993,53.6077761 63.7958579,54.0707722 64.3753528,54.4180244 C64.9548477,54.7652767 65.6481615,54.9389002 66.4553151,54.9389002 Z" id="o" fill="#fff"></path>
    <path d="M102.047977,36.6608961 C102.648169,37.8815404 103.098305,39.1705635 103.398401,40.5280041 C103.698496,41.8854447 103.848542,43.4164884 103.848542,45.1211813 C103.848542,46.3628711 103.714018,47.615065 103.444967,48.8778004 C103.175916,50.1405358 102.787867,51.3611618 102.280809,52.5397149 C101.773751,53.7182679 101.152873,54.8231449 100.418156,55.8543788 C99.6834394,56.8856128 98.845254,57.7800369 97.9035748,58.5376782 C96.9618956,59.2953195 95.9322728,59.8951098 94.8146754,60.3370672 C93.6970781,60.7790246 92.5070618,61 91.2445908,61 C89.4233211,61 87.8659519,60.5948785 86.5724365,59.7846232 C85.2789211,58.974368 84.2182544,57.9168429 83.3904045,56.6120163 C82.5625547,55.3071897 81.9571985,53.8340204 81.574318,52.1924644 C81.1914374,50.5509083 81,48.8883316 81,47.2046843 C81,44.4266664 81.3414829,42.0327663 82.0244591,40.0229124 C82.7074352,38.0130585 83.6853182,36.2663007 84.9581373,34.7825866 C86.2309565,33.2988724 87.7883257,32.1308597 89.6302916,31.2785132 C91.4722576,30.4261668 93.5418512,30 95.8391345,30 C97.8052779,30 99.6472162,30.3104178 101.365005,30.9312627 C103.082793,31.5521077 104.691902,32.383396 106.19238,33.4251527 C107.692858,34.4669095 109.089834,35.7769779 110.383349,37.3553971 C111.676864,38.9338164 112.882403,40.4385536 114,41.8696538 L113.41016,46.3207739 C112.851361,45.5631327 112.09596,44.7423669 111.143932,43.8584521 C110.191905,42.9745373 109.182978,41.995932 108.117121,40.9226069 C107.051265,39.8492818 106.000946,38.9390737 104.966134,38.1919552 C103.931321,37.4448367 103.041396,36.8187398 102.296331,36.3136456 L102.047977,36.6608961 Z M92.4553151,54.9389002 C93.1589875,54.9389002 93.8419534,54.5758692 94.5042333,53.8497963 C95.1665132,53.1237235 95.7459994,52.208254 96.2427093,51.1033605 C96.7394192,49.998467 97.137816,48.662092 97.4379116,47.0941955 C97.7380071,45.526299 97.8880527,44.1320496 97.8880527,42.9114053 C97.8880527,41.9433081 97.8156169,41.0436226 97.6707432,40.2123218 C97.5258695,39.381021 97.3085621,38.6602203 97.0188147,38.0498982 C96.7290672,37.439576 96.3565404,36.9555347 95.901223,36.5977597 C95.4459055,36.2399846 94.8974632,36.0610998 94.2558796,36.0610998 C93.4073335,36.0610998 92.600192,36.4293921 91.8344309,37.1659878 C91.0686697,37.9025835 90.3960518,38.8443595 89.8165569,39.9913442 C89.237062,41.1383289 88.7817514,42.4063067 88.4506115,43.7953157 C88.1194715,45.1843247 87.953904,46.7521976 87.953904,48.4989817 C87.953904,49.3828965 88.0366878,50.2141848 88.2022578,50.9928717 C88.3678277,51.7715585 88.6265269,52.4502687 88.9783631,53.0290224 C89.3301993,53.6077761 89.7958579,54.0707722 90.3753528,54.4180244 C90.9548477,54.7652767 91.6481615,54.9389002 92.4553151,54.9389002 Z" id="o" fill="#fff"></path>
    <path d="M125.249584,35.8125 C123.858562,36.47917 122.62036,37.3593695 121.534942,38.453125 C120.449523,39.5468805 119.543265,40.9895744 118.81614,42.78125 C118.089015,44.5729256 117.535776,46.1145769 117.156406,47.40625 C116.777036,48.6979231 116.587354,49.8645781 116.587354,50.90625 C116.587354,51.3229187 116.634775,51.7395813 116.729617,52.15625 C116.82446,52.5729187 116.998335,52.947915 117.251248,53.28125 C117.504161,53.614585 117.862449,53.8854156 118.326123,54.09375 C118.789797,54.3020844 119.390457,54.40625 120.12812,54.40625 C120.507489,54.40625 120.881584,54.3125009 121.250416,54.125 C121.619248,53.9374991 121.972267,53.6927098 122.309484,53.390625 C122.646702,53.0885402 122.968107,52.7447936 123.27371,52.359375 C123.579314,51.9739564 123.858568,51.5729187 124.111481,51.15625 C124.701611,50.1979119 125.239044,49.1145894 125.723794,47.90625 C125.660565,47.6145819 125.607876,47.1510448 125.565724,46.515625 C125.523572,45.8802052 125.491958,44.9114648 125.470882,43.609375 C125.449806,42.3072852 125.42873,41.2395875 125.407654,40.40625 C125.386578,39.5729125 125.370771,38.8125034 125.360233,38.125 C125.349695,37.4374966 125.333888,36.8750022 125.312812,36.4375 C125.291736,35.9999978 125.27066,35.7916666 125.249584,35.8125 Z M147,54.875 C145.503598,56.0208391 144.028293,57.0416622 142.574043,57.9375 C141.962837,58.3125019 141.320026,58.6822898 140.645591,59.046875 C139.971156,59.4114602 139.307269,59.7343736 138.65391,60.015625 C138.000551,60.2968764 137.363009,60.5260408 136.741265,60.703125 C136.11952,60.8802092 135.545205,60.96875 135.018303,60.96875 C134.723238,60.96875 134.285915,60.9062506 133.706323,60.78125 C133.12673,60.6562494 132.494457,60.4010436 131.809484,60.015625 C131.124511,59.6302064 130.439549,59.0729203 129.754576,58.34375 C129.069603,57.6145797 128.474212,56.6458394 127.968386,55.4375 C127.188571,56.1875037 126.361347,56.9010383 125.486689,57.578125 C124.612031,58.2552117 123.705773,58.8437475 122.767887,59.34375 C121.830001,59.8437525 120.881591,60.2447902 119.922629,60.546875 C118.963667,60.8489598 117.99945,61 117.02995,61 C115.660004,61 114.474492,60.7083363 113.473378,60.125 C112.472263,59.5416637 111.63977,58.7656298 110.975874,57.796875 C110.311977,56.8281202 109.816696,55.7291728 109.490017,54.5 C109.163337,53.2708272 109,52.0000066 109,50.6875 C109,49.35416 109.173875,48.0052152 109.521631,46.640625 C109.869386,45.2760348 110.375205,43.9531314 111.039101,42.671875 C111.702998,41.3906186 112.44065,40.0520903 113.25208,38.65625 C114.063509,37.2604097 115.138374,35.9895891 116.476705,34.84375 C117.815037,33.6979109 119.190231,32.8333363 120.602329,32.25 C122.014427,31.6666637 123.521345,31.3020841 125.123128,31.15625 C125.186356,28.48957 125.428728,26.1145937 125.85025,24.03125 C126.271771,21.9479063 126.830279,19.7291784 127.52579,17.375 C128.221301,15.0208216 129.037988,12.84376 129.975874,10.84375 C130.91376,8.84374 131.941204,7.11459063 133.058236,5.65625 C134.175269,4.19790937 135.36605,3.05729578 136.630616,2.234375 C137.895181,1.41145422 139.201879,1 140.550749,1 C141.541325,1 142.384356,1.25520578 143.079867,1.765625 C143.775378,2.27604422 144.339155,2.95312078 144.771215,3.796875 C145.203274,4.64062922 145.514142,5.61978609 145.703827,6.734375 C145.893512,7.84896391 145.988353,8.99999406 145.988353,10.1875 C145.988353,10.9166703 145.956739,11.6666628 145.893511,12.4375 C145.619522,15.3750147 145.113703,18.1510286 144.37604,20.765625 C143.638377,23.3802214 142.77427,25.9270709 141.783694,28.40625 C140.793118,30.8854291 139.718253,33.3437378 138.559068,35.78125 C136.788677,39.5104353 135.661123,42.04166 135.176373,43.375 C135.070992,43.6666681 134.965613,44.0208313 134.860233,44.4375 C134.754852,44.8541687 134.654743,45.3072892 134.5599,45.796875 C134.465058,46.2864608 134.386024,46.7864558 134.322795,47.296875 C134.259567,47.8072942 134.227953,48.3020809 134.227953,48.78125 C134.227953,49.3854197 134.264836,49.9583306 134.338602,50.5 C134.412369,51.0416694 134.533554,51.5260395 134.702163,51.953125 C134.870772,52.3802105 135.097336,52.7187488 135.381864,52.96875 C135.666391,53.2187512 136.01941,53.34375 136.440932,53.34375 C136.841377,53.34375 137.2787,53.2656258 137.752912,53.109375 C138.227124,52.9531242 138.727673,52.7395847 139.254576,52.46875 C139.781478,52.1979153 140.313641,51.8906267 140.851082,51.546875 C141.388522,51.2031233 141.910147,50.8541684 142.415973,50.5 C143.575158,49.6666625 144.787015,48.7187553 146.051581,47.65625 L147,54.875 Z M140.108153,14.71875 C140.23461,13.2604094 140.297837,12.1041709 140.297837,11.25 C140.297837,10.1249944 140.197727,9.34375219 139.997504,8.90625 C139.797281,8.46874781 139.507489,8.25 139.12812,8.25 C138.453685,8.25 137.842487,8.67187078 137.294509,9.515625 C136.746531,10.3593792 136.261788,11.4374934 135.840266,12.75 C135.418744,14.0625066 135.049918,15.5104087 134.733777,17.09375 C134.417636,18.6770913 134.154189,20.2083259 133.943428,21.6875 C133.732667,23.1666741 133.564061,24.4999941 133.437604,25.6875 C133.311147,26.8750059 133.226844,27.7187475 133.184692,28.21875 C133.100388,29.2395884 133.031892,30.2239536 132.979201,31.171875 C132.926511,32.1197964 132.889629,32.9843711 132.868552,33.765625 C132.847476,34.5468789 132.836938,35.2291637 132.836938,35.8125 C132.836938,36.3958363 132.836938,36.8437484 132.836938,37.15625 L132.836938,37.46875 C134.038276,34.7604031 135.144754,32.0625134 136.156406,29.375 C136.577928,28.2291609 137.004712,27.026048 137.436772,25.765625 C137.868832,24.505202 138.264003,23.2395897 138.622296,21.96875 C138.98059,20.6979103 139.291457,19.4479228 139.554908,18.21875 C139.81836,16.9895772 140.002773,15.8229222 140.108153,14.71875 Z" id="d" fill="#fff"></path>
    <path d="M204.9989,58.1856522 L205,58.1875 C205,58.1866059 204.999633,58.18599 204.9989,58.1856522 Z M204.9989,58.1856523 C204.982543,58.1781206 204.78379,58.3089437 204.402637,58.578125 C204.004393,58.8593764 203.448956,59.2135395 202.736308,59.640625 C202.023661,60.0677105 201.180025,60.5364558 200.205375,61.046875 C199.230725,61.5572942 198.156531,62.0312478 196.982759,62.46875 C195.808987,62.9062522 194.567113,63.2708319 193.257099,63.5625 C191.947086,63.8541681 190.610893,64 189.248479,64 C187.718383,64 186.413629,63.6250037 185.334178,62.875 C184.254728,62.1249963 183.337732,61.1354228 182.583164,59.90625 C181.828597,58.6770772 181.1998,57.2760495 180.696755,55.703125 C180.193709,54.1302005 179.753552,52.5208416 179.376268,50.875 C178.998984,49.2291584 178.647906,47.6197995 178.323022,46.046875 C177.998139,44.4739505 177.636581,43.0729228 177.238337,41.84375 C176.840093,40.6145772 176.368495,39.6250037 175.823529,38.875 C175.278564,38.1249963 174.597367,37.75 173.779919,37.75 L171.799189,37.75 C171.379984,42.3125228 170.855987,46.4010236 170.227181,50.015625 C169.598374,53.6302264 168.765218,56.6979041 167.727688,59.21875 C166.690157,61.7395959 165.390643,63.66666 163.829108,65 C162.267572,66.33334 160.354981,67 158.091278,67 C156.414461,67 154.879148,66.6822948 153.485294,66.046875 C152.09144,65.4114552 150.833846,64.5416722 149.712475,63.4375 C148.591103,62.3333278 147.611228,61.0416741 146.772819,59.5625 C145.934411,58.0833259 145.237494,56.4948002 144.682049,54.796875 C144.126603,53.0989498 143.707405,51.3437591 143.424442,49.53125 C143.141479,47.7187409 143,45.9166756 143,44.125 C143,40.8958172 143.403478,37.7343905 144.210446,34.640625 C145.017414,31.5468595 146.180689,28.6250137 147.700304,25.875 C149.21992,23.1249863 151.059151,20.5989698 153.218053,18.296875 C155.376955,15.9947802 157.803063,14.0052167 160.49645,12.328125 C163.189838,10.6510333 166.124223,9.34375469 169.299696,8.40625 C172.475168,7.46874531 175.833992,7 179.376268,7 C180.948284,7 182.509796,7.14583187 184.060852,7.4375 C185.611908,7.72916813 187.089581,8.15624719 188.493915,8.71875 C189.898249,9.28125281 191.203003,9.9791625 192.408215,10.8125 C193.613427,11.6458375 194.650942,12.598953 195.520791,13.671875 C196.39064,14.744797 197.077077,15.9374934 197.580122,17.25 C198.083167,18.5625066 198.334686,19.9895756 198.334686,21.53125 C198.334686,22.531255 198.167006,23.5833278 197.831643,24.6875 C197.49628,25.7916722 196.982762,26.880203 196.291075,27.953125 C195.599388,29.026047 194.713832,30.062495 193.634381,31.0625 C192.55493,32.062505 191.260657,32.9583294 189.751521,33.75 C188.242386,34.5416706 186.523674,35.2031223 184.595335,35.734375 C182.666995,36.2656277 180.497646,36.6041659 178.087221,36.75 C179.554436,37.2916694 180.78059,37.9895791 181.76572,38.84375 C182.75085,39.6979209 183.573526,40.6510364 184.233773,41.703125 C184.89402,42.7552136 185.418017,43.8645775 185.805781,45.03125 C186.193545,46.1979225 186.523663,47.3437444 186.796146,48.46875 C187.068629,49.5937556 187.314908,50.6718698 187.53499,51.703125 C187.755072,52.7343802 188.017071,53.6406211 188.320994,54.421875 C188.624917,55.2031289 189.007435,55.8281227 189.46856,56.296875 C189.929685,56.7656273 190.548002,57 191.323529,57 C192.036177,57 192.816933,56.8802095 193.665822,56.640625 C194.51471,56.4010405 195.384546,56.0625022 196.275355,55.625 C197.166164,55.1874978 198.04648,54.6666697 198.916329,54.0625 C199.786177,53.4583303 200.598374,52.7916703 201.352941,52.0625 L204.9989,58.1856522 Z M178.810345,14 C175.35191,14 172.265565,14.4791619 169.551217,15.4375 C166.836869,16.3958381 164.452681,17.6874919 162.39858,19.3125 C160.344479,20.9375081 158.594328,22.8229059 157.148073,24.96875 C155.701818,27.1145941 154.528064,29.3645716 153.626775,31.71875 C152.725486,34.0729284 152.070489,36.4583212 151.661765,38.875 C151.253041,41.2916788 151.048682,43.5937391 151.048682,45.78125 C151.048682,47.4687584 151.195401,49.1614498 151.488844,50.859375 C151.782287,52.5573002 152.243405,54.0833266 152.872211,55.4375 C153.501017,56.7916734 154.313213,57.8906208 155.308824,58.734375 C156.304434,59.5781292 157.504388,60 158.908722,60 C159.621369,60 160.250166,59.7239611 160.795132,59.171875 C161.340097,58.6197889 161.822175,57.880213 162.241379,56.953125 C162.660584,56.026037 163.027382,54.9531311 163.341785,53.734375 C163.656188,52.5156189 163.918187,51.2500066 164.127789,49.9375 C164.337391,48.6249934 164.50507,47.30209 164.630832,45.96875 C164.756593,44.63541 164.856152,43.3854225 164.929513,42.21875 C165.002874,41.0520775 165.050034,40.0156295 165.070994,39.109375 C165.091954,38.2031205 165.102434,37.5104191 165.102434,37.03125 C163.467537,36.2604128 162.225663,35.54167 161.376775,34.875 C160.527886,34.20833 160.103448,33.4375044 160.103448,32.5625 C160.103448,32.3541656 160.119168,32.1041681 160.150609,31.8125 C160.182049,31.5208319 160.250169,31.2500012 160.35497,31 C160.459771,30.7499988 160.61173,30.5364592 160.810852,30.359375 C161.009974,30.1822908 161.277213,30.09375 161.612576,30.09375 C161.759298,30.09375 162.052736,30.1197914 162.492901,30.171875 C162.933065,30.2239586 163.394183,30.286458 163.876268,30.359375 C164.358353,30.432292 164.80375,30.4947914 165.212475,30.546875 C165.621199,30.5989586 165.888438,30.625 166.014199,30.625 L166.045639,29.96875 C166.066599,29.635415 166.103279,29.1770863 166.15568,28.59375 C166.20808,28.0104137 166.29716,27.38542 166.422921,26.71875 C166.548682,26.05208 166.732081,25.3802117 166.973124,24.703125 C167.214166,24.0260383 167.533805,23.4114611 167.932049,22.859375 C168.330293,22.3072889 168.80713,21.8593767 169.362576,21.515625 C169.918022,21.1718733 170.593978,21 171.390467,21 C172.438477,21 173.135394,21.2343727 173.481237,21.703125 C173.827081,22.1718773 174,22.7708297 174,23.5 L174,23.78125 C173.97904,24.5729206 173.85852,25.6197852 173.638438,26.921875 C173.418356,28.2239648 173.213997,29.7291581 173.025355,31.4375 C176.44187,31.3749997 179.260976,31.0364614 181.482759,30.421875 C183.704541,29.8072886 185.465173,29.0312547 186.764706,28.09375 C188.064239,27.1562453 188.975995,26.1302139 189.5,25.015625 C190.024005,23.9010361 190.286004,22.8229219 190.286004,21.78125 C190.286004,20.7604116 190.039725,19.7812547 189.54716,18.84375 C189.054595,17.9062453 188.326239,17.0781286 187.362069,16.359375 C186.397899,15.6406214 185.203185,15.0677105 183.77789,14.640625 C182.352596,14.2135395 180.696764,14 178.810345,14 Z" id="R" fill="#fff"></path>
    <path d="M207.761857,61 C205.801537,61 204.086284,60.6447626 202.616044,59.934277 C201.145805,59.2237915 199.920624,58.2677849 198.940464,57.0662285 C197.960305,55.8646721 197.225196,54.4750669 196.735116,52.8973711 C196.245036,51.3196753 196,49.663642 196,47.9292214 C196,46.75901 196.218969,45.3641807 196.656912,43.7446916 C197.094856,42.1252026 197.548434,40.6885806 198.017659,39.4347826 C198.486884,38.1809846 199.076014,36.9846703 199.785066,35.8458038 C200.494117,34.7069373 201.32307,33.703914 202.271948,32.8367037 C203.220825,31.9694935 204.284387,31.2799149 205.462664,30.7679474 C206.640941,30.2559799 207.949539,30 209.388496,30 C210.556346,30 211.640762,30.1880669 212.641776,30.5642063 C213.64279,30.9403457 214.513451,31.4679777 215.253784,32.1471183 C215.994117,32.8262589 216.57282,33.6464394 216.989909,34.6076845 C217.406998,35.5689296 217.61554,36.6450901 217.61554,37.8361982 C217.61554,39.1317894 217.193243,40.5840836 216.348638,42.1931244 C215.504032,43.8021651 214.518674,45.1813222 213.392533,46.330637 C212.266392,47.4799518 210.926513,48.5038715 209.372856,49.4024267 C207.819198,50.3009819 206.135226,51.0010086 204.320888,51.5025278 C204.633705,52.0667369 204.941304,52.5369041 205.243693,52.9130435 C205.546083,53.2891829 205.853682,53.5817313 206.166498,53.7906977 C206.479315,53.999664 206.807768,54.1459382 207.151867,54.2295248 C207.495965,54.3131113 207.866127,54.3549039 208.262361,54.3549039 C209.513629,54.3549039 210.832654,54.1041481 212.219475,53.6026289 C213.606297,53.1011097 214.956603,52.4742201 216.270434,51.7219414 C217.584265,50.9696626 218.825087,50.149482 219.992936,49.2613751 C221.160786,48.3732682 222.151358,47.5321914 222.964682,46.7381193 L227,50.9383215 C225.164808,52.8399151 223.214945,54.5220689 221.150353,55.9848332 C220.253611,56.6117322 219.289107,57.2281736 218.256811,57.8341759 C217.224516,58.4401783 216.1401,58.9782585 215.003532,59.4484328 C213.866964,59.918607 212.688704,60.2947408 211.468718,60.5768453 C210.248733,60.8589498 209.013124,61 207.761857,61 Z M203.601413,46.2679474 C204.352173,46.2679474 205.170699,46.0746565 206.057013,45.6880688 C206.943328,45.301481 207.767066,44.8051935 208.528254,44.1991911 C209.289442,43.5931887 210.034978,42.7782323 210.764884,41.7542973 C211.49479,40.7303623 211.859738,39.8840613 211.859738,39.2153691 C211.859738,38.2750206 211.687691,37.5018568 211.343592,36.8958544 C210.999494,36.289852 210.577197,35.9868554 210.07669,35.9868554 C209.179948,35.9868554 208.413559,36.154026 207.777497,36.4883721 C207.141436,36.8227182 206.609656,37.2563169 206.182139,37.789181 C205.754623,38.3220451 205.410529,38.9280384 205.149849,39.607179 C204.889168,40.2863195 204.586783,41.1273964 204.242684,42.1304348 C203.898586,43.1334732 203.705685,43.9588778 203.663976,44.6066734 C203.622267,45.254469 203.601413,45.8082215 203.601413,46.2679474 Z" id="e" fill="#fff"></path>
    <path d="M229.476923,61 C227.589734,61 225.93334,60.6472592 224.507692,59.9417671 C223.082044,59.2362749 221.887184,58.2921746 220.923077,57.1094378 C219.95897,55.9267009 219.230772,54.5572367 218.738462,53.001004 C218.246151,51.4447713 218,49.8263136 218,48.1455823 C218,46.9420957 218.205126,45.5000084 218.615385,43.8192771 C219.025643,42.1385458 219.471792,40.6705217 219.953846,39.4151606 C220.4359,38.1597996 221.030766,36.9615184 221.738462,35.8202811 C222.446157,34.6790438 223.266662,33.6778825 224.2,32.8167671 C225.133338,31.9556517 226.174353,31.2709195 227.323077,30.7625502 C228.471801,30.2541809 229.733326,30 231.107692,30 C232.276929,30 233.358969,30.1815578 234.353846,30.5446787 C235.348723,30.9077997 236.199996,31.410974 236.907692,32.0542169 C237.615388,32.6974597 238.169229,33.4600023 238.569231,34.3418675 C238.969233,35.2237327 239.169231,36.1730204 239.169231,37.189759 C239.169231,37.8952512 239.076924,38.590358 238.892308,39.2751004 C238.707691,39.9598428 238.348721,40.7638843 237.815385,41.687249 C237.282049,42.6106137 236.764105,43.2382848 236.261538,43.5702811 C235.758972,43.9022774 235.189747,44.0682731 234.553846,44.0682731 C233.569226,44.0682731 232.933335,43.8089049 232.646154,43.2901606 C232.174357,42.4809196 232.030768,41.7650634 232.215385,41.1425703 C232.276923,40.810574 232.461537,40.042844 232.769231,38.8393574 C232.810257,38.6733593 232.820513,38.299869 232.8,37.7188755 C232.8,37.220881 232.748718,36.8058919 232.646154,36.4738956 C232.543589,36.1418993 232.31795,35.9759036 231.969231,35.9759036 C231.128201,35.9759036 230.410259,36.1782108 229.815385,36.5828313 C229.22051,36.9874518 228.712823,37.516563 228.292308,38.1701807 C227.871793,38.8237984 227.456412,39.7471493 227.046154,40.940261 C226.635895,42.1333728 226.343591,43.1345341 226.169231,43.9437751 C225.994871,44.7530161 225.88718,45.5259334 225.846154,46.2625502 C225.805128,46.999167 225.784615,47.6164634 225.784615,48.1144578 C225.784615,48.8614495 225.851281,49.6395542 225.984615,50.4487952 C226.117949,51.2580362 226.384613,51.9998293 226.784615,52.6741968 C227.184617,53.3485643 227.702561,53.9087996 228.338462,54.3549197 C228.974362,54.8010397 229.794867,55.0240964 230.8,55.0240964 C231.78462,55.0240964 232.871789,54.7180419 234.061538,54.1059237 C235.251288,53.4938055 236.446148,52.7208882 237.646154,51.7871486 C238.84616,50.853409 239.989738,49.8263108 241.076923,48.7058233 C242.164108,47.5853358 243.097432,46.5271134 243.876923,45.5311245 L246,49.1415663 C244.461531,51.3617916 242.800009,53.3433648 241.015385,55.0863454 C240.256406,55.8333371 239.430774,56.5595681 238.538462,57.2650602 C237.646149,57.9705524 236.712825,58.5982235 235.738462,59.1480924 C234.764098,59.6979613 233.748723,60.1440746 232.692308,60.4864458 C231.635892,60.828817 230.564108,61 229.476923,61 Z" id="c" fill="#fff"></path>
    <path d="M264,55.2878151 C263.249996,55.9810959 262.317714,56.7216347 261.203125,57.5094538 C260.088536,58.2972728 258.885423,59.0220555 257.59375,59.6838235 C256.302077,60.3455915 254.984382,60.8970566 253.640625,61.3382353 C252.296868,61.779414 251.020839,62 249.8125,62 C248.729161,62 247.817712,61.8476906 247.078125,61.5430672 C246.338538,61.2384439 245.739586,60.8130279 245.28125,60.2668067 C244.822914,59.7205855 244.494793,59.0535754 244.296875,58.2657563 C244.098957,57.4779372 244,56.6113493 244,55.6659664 C244,54.3424304 244.145832,52.7983282 244.4375,51.0336134 C245.020836,47.6302351 245.395832,45.7184895 245.5625,45.2983193 C245.854168,44.373945 246.437496,42.3256461 247.3125,39.1533613 C248.020837,36.5062893 248.458332,34.7836174 248.625,33.9852941 C248.729167,33.4600814 249.020831,32.9873971 249.5,32.5672269 C249.937502,32.1890737 250.432289,31.8792029 250.984375,31.637605 C251.536461,31.3960072 252.109372,31.2174376 252.703125,31.1018908 C253.296878,30.986344 253.833331,30.9285714 254.3125,30.9285714 C255.187504,30.9285714 255.781248,31.0913849 256.09375,31.4170168 C256.406252,31.7426487 256.5625,32.1785687 256.5625,32.7247899 C256.5625,33.1869771 256.458334,33.8539872 256.25,34.7258403 C256.041666,35.5976934 255.781252,36.5850785 255.46875,37.6880252 C255.156248,38.7909719 254.760419,40.1144881 254.28125,41.6586134 C253.802081,43.2027388 253.406252,44.6102878 253.09375,45.8813025 C252.781248,47.1523173 252.520834,48.3918007 252.3125,49.5997899 C252.104166,50.8077791 252,51.8949532 252,52.8613445 C252,53.8067274 252.104166,54.5577703 252.3125,55.1144958 C252.520834,55.6712213 252.947913,55.9495798 253.59375,55.9495798 C254.343754,55.9495798 255.177079,55.6869774 256.09375,55.1617647 C257.010421,54.636552 257.937495,54.0010541 258.875,53.2552521 C259.812505,52.5094501 260.729162,51.7373989 261.625,50.9390756 C262.520838,50.1407523 263.312497,49.457986 264,48.8907563 L264,55.2878151 Z M250.03125,22.262605 C250.03125,21.7794093 250.135416,21.2331963 250.34375,20.6239496 C250.552084,20.0147028 250.890623,19.4422296 251.359375,18.9065126 C251.828127,18.3707956 252.453121,17.9191195 253.234375,17.5514706 C254.015629,17.1838217 254.989577,17 256.15625,17 C256.88542,17 257.572913,17.0840328 258.21875,17.2521008 C258.864587,17.4201689 259.427081,17.6775193 259.90625,18.0241597 C260.385419,18.3708001 260.765624,18.8277283 261.046875,19.394958 C261.328126,19.9621877 261.46875,20.6344499 261.46875,21.4117647 C261.46875,22.126054 261.354168,22.8193244 261.125,23.4915966 C260.895832,24.1638689 260.531252,24.7626024 260.03125,25.2878151 C259.531248,25.8130278 258.901045,26.2384438 258.140625,26.5640756 C257.380205,26.8897075 256.468755,27.052521 255.40625,27.052521 C253.572907,27.052521 252.218754,26.616601 251.34375,25.7447479 C250.468746,24.8728948 250.03125,23.7121921 250.03125,22.262605 Z" id="i" fill="#fff"></path>
    <path d="M273.528026,54.2769927 C275.606563,54.2769927 277.499856,54.0697213 279.207961,53.6551724 C280.916066,53.2406235 282.464656,52.6809909 283.853777,51.9762578 C285.242899,51.2715246 286.498234,50.4476211 287.619821,49.5045223 C288.741408,48.5614236 289.754937,47.5509758 290.660439,46.4731487 L291,53.5929904 C290.341454,54.4013607 289.544007,55.18381 288.607636,55.9403618 C287.671265,56.6969135 286.647447,57.3601818 285.536149,57.9301865 C284.424852,58.5001913 283.256979,58.9561882 282.032494,59.2981911 C280.808009,59.6401939 279.598977,59.8111928 278.405361,59.8111928 C278.261304,59.8111928 278.081236,59.7904656 277.86515,59.7490107 C277.649065,59.7075559 277.273493,59.6350109 276.738424,59.5313737 C276.203355,59.4277364 275.436777,59.2878283 274.438668,59.111645 C273.440558,58.9354617 272.087471,58.7230086 270.379366,58.4742793 L270.379366,59.0339175 C270.379366,62.8063124 270.065533,66.2314713 269.437855,69.3094969 C268.810178,72.3875225 267.971573,75.0146867 266.922015,77.1910684 C265.872456,79.3674501 264.668569,81.046348 263.310317,82.2278123 C261.952065,83.4092767 260.542385,84 259.081235,84 C257.908199,84 256.930684,83.7098201 256.14866,83.1294517 C255.366636,82.5490832 254.744113,81.7666339 254.281072,80.7820803 C253.818032,79.7975266 253.488764,78.6471707 253.293258,77.330978 C253.097752,76.0147852 253,74.6208854 253,73.1492369 C253,72.2994116 253.133765,71.3407817 253.4013,70.2733183 C253.668834,69.2058548 254.028971,68.0865896 254.481722,66.915489 C254.934473,65.7443883 255.44381,64.5525781 256.009748,63.3400226 C256.575687,62.1274671 257.157051,60.9512022 257.753859,59.8111928 C259.15327,57.1580798 260.748163,54.4220981 262.538587,51.6031656 C262.764962,49.9864249 262.996479,48.3282542 263.233144,46.6286037 C263.469809,44.9289533 263.768208,43.2811461 264.128351,41.6851328 C264.488494,40.0891196 265.044134,38.4154035 265.795288,36.6639344 C266.546443,34.9124653 267.349034,33.508202 268.203087,32.4511023 C269.057139,31.3940026 270.080958,30.5545537 271.274574,29.9327304 C272.468189,29.310907 273.908738,29 275.596263,29 C276.851617,29 278.024636,29.1709989 279.115353,29.5130017 C280.206071,29.8550045 281.163007,30.4094554 281.98619,31.1763708 C282.809373,31.9432863 283.45762,32.9330069 283.93095,34.1455625 C284.404281,35.358118 284.640942,36.8452899 284.640942,38.6071227 C284.640942,40.5555025 284.43515,42.0789468 284.023558,43.1775014 C283.406171,44.8149696 282.608724,46.2347782 281.631194,47.43697 C280.653664,48.6391618 279.490936,49.7636089 278.142973,50.8103448 C276.795011,51.8570808 275.194973,52.7949836 273.342811,53.6240814 L273.528026,54.2769927 Z M269.638505,51.1368005 C270.87328,50.5149771 271.943402,49.8206181 272.848903,49.0537027 C273.713246,48.2867872 274.474679,47.4680654 275.133225,46.5975127 C275.40076,46.5560578 276.038717,45.6026097 277.047116,43.7371396 C277.726242,42.1411264 278.158407,40.9182255 278.343623,40.0684002 C278.446521,39.6123964 278.513404,39.0786727 278.544273,38.4672131 C278.575142,37.8557535 278.513405,37.2805755 278.359058,36.741662 C278.204711,36.2027484 277.93718,35.7415697 277.556458,35.3581119 C277.175736,34.9746542 276.64582,34.7829282 275.966694,34.7829282 C275.205249,34.7829282 274.536423,34.9953813 273.960195,35.420294 C273.383967,35.8452066 272.88492,36.4203845 272.463038,37.1458451 C272.041157,37.8713057 271.691309,38.7314817 271.413485,39.7263991 C271.135661,40.7213164 270.806392,41.9493991 270.42567,43.410684 C270.044948,44.8719689 269.818576,46.2192326 269.746548,47.4525155 C269.674519,48.6857985 269.638505,49.9138812 269.638505,51.1368005 Z M258.896019,73.522329 C258.896019,73.6881486 258.932033,73.9576013 259.004062,74.3306953 C259.07609,74.7037893 259.194421,75.0768777 259.359058,75.4499717 C259.523694,75.8230657 259.739777,76.1546999 260.007311,76.4448841 C260.274846,76.7350683 260.604114,76.8801583 260.995126,76.8801583 C261.344979,76.8801583 261.633088,76.6884323 261.859464,76.3049746 C262.085839,75.9215168 262.271053,75.4085203 262.41511,74.7659695 C262.559167,74.1234187 262.662063,73.397969 262.723802,72.5895986 C262.785541,71.7812283 262.836989,70.9521429 262.878148,70.1023177 C262.919307,69.2524925 262.945031,68.4234071 262.955321,67.6150367 C262.965611,66.8066664 262.991335,66.0812167 263.032494,65.4386659 C263.094233,64.3193839 263.140536,63.3711175 263.171405,62.5938383 C263.202275,61.8165591 263.227999,61.1688362 263.248578,60.6506501 C263.269158,60.0702816 263.289737,59.583194 263.310317,59.1893725 C262.919305,59.8733782 262.538588,60.6661911 262.168156,61.5678349 C261.797724,62.4694788 261.447876,63.4073816 261.118603,64.3815715 C260.78933,65.3557614 260.49093,66.3299367 260.223396,67.3041266 C259.955861,68.2783165 259.724344,69.1851286 259.528838,70.0245902 C259.333332,70.8640517 259.178988,71.5895014 259.0658,72.200961 C258.952612,72.8124206 258.896019,73.2528722 258.896019,73.522329 Z" id="p" fill="#fff"></path>
    <path d="M298.761857,61 C296.801537,61 295.086284,60.6447626 293.616044,59.934277 C292.145805,59.2237915 290.920624,58.2677849 289.940464,57.0662285 C288.960305,55.8646721 288.225196,54.4750669 287.735116,52.8973711 C287.245036,51.3196753 287,49.663642 287,47.9292214 C287,46.75901 287.218969,45.3641807 287.656912,43.7446916 C288.094856,42.1252026 288.548434,40.6885806 289.017659,39.4347826 C289.486884,38.1809846 290.076014,36.9846703 290.785066,35.8458038 C291.494117,34.7069373 292.32307,33.703914 293.271948,32.8367037 C294.220825,31.9694935 295.284387,31.2799149 296.462664,30.7679474 C297.640941,30.2559799 298.949539,30 300.388496,30 C301.556346,30 302.640762,30.1880669 303.641776,30.5642063 C304.64279,30.9403457 305.513451,31.4679777 306.253784,32.1471183 C306.994117,32.8262589 307.57282,33.6464394 307.989909,34.6076845 C308.406998,35.5689296 308.61554,36.6450901 308.61554,37.8361982 C308.61554,39.1317894 308.193243,40.5840836 307.348638,42.1931244 C306.504032,43.8021651 305.518674,45.1813222 304.392533,46.330637 C303.266392,47.4799518 301.926513,48.5038715 300.372856,49.4024267 C298.819198,50.3009819 297.135226,51.0010086 295.320888,51.5025278 C295.633705,52.0667369 295.941304,52.5369041 296.243693,52.9130435 C296.546083,53.2891829 296.853682,53.5817313 297.166498,53.7906977 C297.479315,53.999664 297.807768,54.1459382 298.151867,54.2295248 C298.495965,54.3131113 298.866127,54.3549039 299.262361,54.3549039 C300.513629,54.3549039 301.832654,54.1041481 303.219475,53.6026289 C304.606297,53.1011097 305.956603,52.4742201 307.270434,51.7219414 C308.584265,50.9696626 309.825087,50.149482 310.992936,49.2613751 C312.160786,48.3732682 313.151358,47.5321914 313.964682,46.7381193 L318,50.9383215 C316.164808,52.8399151 314.214945,54.5220689 312.150353,55.9848332 C311.253611,56.6117322 310.289107,57.2281736 309.256811,57.8341759 C308.224516,58.4401783 307.1401,58.9782585 306.003532,59.4484328 C304.866964,59.918607 303.688704,60.2947408 302.468718,60.5768453 C301.248733,60.8589498 300.013124,61 298.761857,61 Z M294.601413,46.2679474 C295.352173,46.2679474 296.170699,46.0746565 297.057013,45.6880688 C297.943328,45.301481 298.767066,44.8051935 299.528254,44.1991911 C300.289442,43.5931887 301.034978,42.7782323 301.764884,41.7542973 C302.49479,40.7303623 302.859738,39.8840613 302.859738,39.2153691 C302.859738,38.2750206 302.687691,37.5018568 302.343592,36.8958544 C301.999494,36.289852 301.577197,35.9868554 301.07669,35.9868554 C300.179948,35.9868554 299.413559,36.154026 298.777497,36.4883721 C298.141436,36.8227182 297.609656,37.2563169 297.182139,37.789181 C296.754623,38.3220451 296.410529,38.9280384 296.149849,39.607179 C295.889168,40.2863195 295.586783,41.1273964 295.242684,42.1304348 C294.898586,43.1334732 294.705685,43.9588778 294.663976,44.6066734 C294.622267,45.254469 294.601413,45.8082215 294.601413,46.2679474 Z" id="e" fill="#fff"></path>
    <path d="M310.994495,48.8291708 C312.159027,47.8381569 313.105195,47.0123243 313.833028,46.3516484 C314.56086,45.6909724 315.288681,44.9219158 316.016514,44.0444555 C316.744346,43.1669953 317.321405,42.4495532 317.747706,41.8921079 C318.174008,41.3346625 318.678285,40.6739965 319.26055,39.9100899 C319.842816,39.1461833 320.549843,38.2119602 321.381651,37.1073926 C322.21346,36.002825 323.294795,34.6247169 324.625688,32.973027 C324.896026,32.6013967 325.197552,32.240095 325.530275,31.8891109 C325.862999,31.5381268 326.232108,31.2232781 326.637615,30.9445554 C327.043121,30.6658328 327.490212,30.4387288 327.978899,30.2632368 C328.467587,30.0877447 329.013453,30 329.616514,30 C330.614684,30 331.384095,30.1083905 331.924771,30.3251748 C332.465446,30.5419591 332.860549,30.8051933 333.110092,31.1148851 C333.359634,31.424577 333.505199,31.7497485 333.546789,32.0904096 C333.588379,32.4310706 333.609174,32.7252735 333.609174,32.973027 C333.609174,33.4685339 333.411623,34.015648 333.016514,34.6143856 C332.621405,35.2131232 332.184712,35.791206 331.706422,36.3486513 C331.228132,36.9060967 330.775843,37.4170806 330.349541,37.8816184 C329.923239,38.3461562 329.678899,38.6919736 329.616514,38.9190809 C329.616514,39.5591108 329.663302,40.142355 329.756881,40.6688312 C329.850459,41.1953073 329.975229,41.7114527 330.131193,42.2172827 C330.287157,42.7231128 330.448317,43.2599039 330.614679,43.8276723 C330.781041,44.3954407 330.942201,45.0509453 331.098165,45.7942058 C331.254129,46.5374663 331.274924,47.5594341 331.16055,48.8601399 C331.046177,50.1608457 330.988991,51.4718549 330.988991,52.7932068 C331.737618,52.2976998 332.543421,51.8486534 333.406422,51.4460539 C334.269423,51.0434545 335.168803,50.6253768 336.104587,50.1918082 C337.040372,49.7582396 338.002136,49.2782244 338.989908,48.7517483 C339.977681,48.2252721 340.970637,47.5904133 341.968807,46.8471528 L342,53.7842158 C340.710697,54.7752297 339.218663,55.7042914 337.523853,56.5714286 C335.829044,57.4385658 334.05108,58.2024609 332.189908,58.8631369 C330.328737,59.5238128 328.446799,60.0451196 326.544037,60.4270729 C324.641275,60.8090262 322.837317,61 321.13211,61 C319.905193,61 318.761473,60.886448 317.700917,60.6593407 C316.640362,60.4322333 315.70979,60.076093 314.909174,59.5909091 C314.108559,59.1057252 313.458718,58.4708664 312.959633,57.6863137 C312.460548,56.901761 312.159022,55.9520535 312.055046,54.8371628 C311.763913,54.8991012 311.477983,54.9403928 311.197248,54.961039 C310.916512,54.9816851 310.64098,54.992008 310.370642,54.992008 C310.037919,54.992008 309.725995,54.9816851 309.434862,54.961039 C309.143729,54.9403928 308.894191,54.862971 308.686239,54.7287712 C308.478286,54.5945714 308.311927,54.3777904 308.187156,54.0784216 C308.062385,53.7790528 308,53.3506521 308,52.7932068 C308,52.2976998 308.124769,51.8383305 308.374312,51.4150849 C308.623854,50.9918394 308.914983,50.6150533 309.247706,50.2847153 C309.58043,49.9543773 309.913148,49.6653359 310.245872,49.4175824 C310.578595,49.1698289 310.828134,48.9736937 310.994495,48.8291708 Z M314.987156,52.7932068 C315.236698,52.7932068 315.512231,52.9480504 315.813761,53.2577423 C316.115292,53.5674341 316.463607,53.90809 316.858716,54.2797203 C317.253825,54.6513505 317.711312,54.9920064 318.231193,55.3016983 C318.751073,55.6113902 319.343728,55.7662338 320.009174,55.7662338 C320.820188,55.7662338 321.490823,55.632036 322.021101,55.3636364 C322.551379,55.0952368 322.972476,54.7390965 323.284404,54.2952048 C323.596332,53.8513131 323.814678,53.3351678 323.93945,52.7467532 C324.064221,52.1583387 324.126606,51.5441257 324.126606,50.9040959 C324.126606,50.3466506 324.090214,49.7788907 324.017431,49.2007992 C323.944648,48.6227077 323.955045,47.9052657 324.048624,47.0484515 C324.142202,46.1916374 324.121407,45.5309714 323.986239,45.0664336 C323.85107,44.6018958 323.731499,44.2044639 323.627523,43.8741259 L314.987156,52.7932068 Z" id="s" fill="#fff"></path>
    <path d="M347.389696,44.9547901 C347.601058,42.8112559 347.918096,40.600119 348.340819,38.3213132 C348.763542,36.0425074 349.249667,33.7637358 349.799207,31.48493 C350.348748,29.2061242 350.935268,26.953366 351.558785,24.7265877 C352.182302,22.4998095 352.800525,20.3667127 353.413474,18.3272336 C354.026423,16.2877544 354.612943,14.3731701 355.173052,12.583423 C355.73316,10.793676 356.224569,9.18084679 356.647292,7.74488698 C356.922062,6.74595841 357.318359,5.93954379 357.836196,5.32561895 C358.354032,4.7116941 358.929984,4.233048 359.564069,3.88966631 C360.198154,3.54628461 360.869217,3.31216424 361.577279,3.18729817 C362.28534,3.0624321 362.966972,3 363.622193,3 C363.960372,3 364.277409,3.0416214 364.573316,3.12486545 C364.869222,3.20810949 365.122852,3.35898707 365.334214,3.57750269 C365.545576,3.79601832 365.709379,4.09777346 365.825627,4.48277718 C365.941876,4.8677809 366,5.36203502 366,5.96555436 C366,6.3817746 365.97358,6.83440731 365.92074,7.32346609 C365.867899,7.81252487 365.778072,8.36921109 365.651255,8.99354144 C365.122851,11.4284298 364.435936,13.8684844 363.590489,16.3137783 C362.745042,18.7590721 361.730521,21.386423 360.546896,24.1959096 C359.36327,27.0053962 358.01586,30.0905824 356.504624,33.4515608 C354.993387,36.8125392 353.307803,40.6469106 351.44782,44.9547901 C351.405548,45.1837112 351.294585,45.3970209 351.114927,45.5947255 C350.93527,45.7924301 350.718627,45.9589157 350.464993,46.0941873 C350.211359,46.2294589 349.936593,46.3335124 349.640687,46.4063509 C349.344781,46.4791895 349.059447,46.5156082 348.784676,46.5156082 C348.383089,46.5156082 348.039632,46.4323654 347.754293,46.2658773 C347.468955,46.0993892 347.326288,45.8184447 347.326288,45.4230355 C347.326288,45.3189805 347.347424,45.1629002 347.389696,44.9547901 Z M352.906209,55.1625404 C352.863936,55.2457844 352.826949,55.4434861 352.795244,55.7556512 C352.76354,56.0678164 352.689565,56.442409 352.573316,56.8794403 C352.457067,57.3164715 352.293264,57.7743069 352.081902,58.2529602 C351.870541,58.7316134 351.558787,59.1738408 351.146631,59.5796555 C350.734476,59.9854703 350.211364,60.3236441 349.577279,60.5941873 C348.943194,60.8647305 348.150599,61 347.199472,61 C346.417433,61 345.709382,60.9011492 345.075297,60.7034446 C344.441212,60.50574 343.896964,60.1987821 343.442536,59.7825619 C342.988109,59.3663417 342.634083,58.8356688 342.380449,58.1905274 C342.126815,57.5453861 342,56.7753902 342,55.8805167 C342,55.1313203 342.110963,54.3977431 342.332893,53.6797632 C342.554823,52.9617833 342.89828,52.3218543 343.363276,51.7599569 C343.828272,51.1980596 344.430644,50.7506296 345.17041,50.4176534 C345.910175,50.0846772 346.787313,49.9181916 347.801849,49.9181916 C349.450471,49.9181916 350.718622,50.3552163 351.606341,51.2292788 C352.49406,52.1033413 352.937913,53.3519833 352.937913,54.9752422 C352.937913,55.0584862 352.927345,55.1209183 352.906209,55.1625404 Z" id="!" fill="#fff"></path>
  </g>
</svg>
